<svg width="2247" height="503" viewBox="0 0 2247 503" fill="none" xmlns="http://www.w3.org/2000/svg">
<g clip-path="url(#clip0_1653_68)">
<path d="M1003.8 68H927L835.8 217.28L744.6 68H667.8V404H744.6V208.64L831.48 351.2H840.12L927 208.64V404H1003.8V68ZM1085.55 142.88C1109.07 142.88 1128.75 123.2 1128.75 99.68C1128.75 76.16 1109.07 56.48 1085.55 56.48C1062.03 56.48 1042.35 76.16 1042.35 99.68C1042.35 123.2 1062.03 142.88 1085.55 142.88ZM1049.55 404H1121.55V164H1049.55V404ZM1305.28 157.28C1273.6 157.28 1249.6 168.8 1236.64 186.56V164H1164.64V404H1236.64V272.96C1236.64 238.88 1254.88 223.52 1281.28 223.52C1304.32 223.52 1323.04 237.44 1323.04 267.2V404H1395.04V256.64C1395.04 191.84 1353.76 157.28 1305.28 157.28ZM1575.52 233.12V164H1526.08V96.8L1454.08 118.4V164H1415.68V233.12H1454.08V318.08C1454.08 385.28 1481.44 413.6 1575.52 404V338.72C1543.84 340.64 1526.08 338.72 1526.08 318.08V233.12H1575.52ZM1606.69 404H1678.69V53.6H1606.69V404ZM1757.78 142.88C1781.3 142.88 1800.98 123.2 1800.98 99.68C1800.98 76.16 1781.3 56.48 1757.78 56.48C1734.26 56.48 1714.58 76.16 1714.58 99.68C1714.58 123.2 1734.26 142.88 1757.78 142.88ZM1721.78 404H1793.78V164H1721.78V404ZM1968.86 130.4V61.28C1889.18 56.48 1852.22 96.8 1852.22 164H1820.06V233.12H1852.22V404H1924.22V233.12H1968.86V164H1924.22C1924.22 136.16 1941.98 128 1968.86 130.4ZM2146.28 164L2101.16 310.88L2047.88 164H1968.68L2064.2 392.96C2053.64 422.24 2037.8 432.8 2004.2 432.8V500C2071.4 503.36 2114.12 473.12 2141 396.8L2223.08 164H2146.28Z" fill="#161616"/>
<g clip-path="url(#clip1_1653_68)">
<path d="M167.833 188.492C168.161 143.734 185.911 100.865 217.318 68.9746H217.26L96.0063 190.228H96.0641C95.6128 190.584 95.1872 190.97 94.7908 191.386C65.3021 220.836 47.4234 259.934 44.4359 301.503C41.4485 343.071 53.5527 384.324 78.5272 417.688L200.996 295.219L202.27 294.003C179.444 263.606 167.334 226.502 167.833 188.492V188.492Z" fill="#0C8C5E"/>
<path d="M462.257 313.971C439.05 336.714 409.919 352.479 378.185 359.469C346.452 366.458 313.393 364.39 282.778 353.501C266.455 347.707 251.114 339.451 237.287 329.019L236.013 330.292L113.544 452.704C146.922 477.616 188.151 489.682 229.694 486.695C271.237 483.709 310.316 465.87 339.788 436.44L341.003 435.225L462.257 313.971Z" fill="#0C8C5E"/>
<path d="M514.232 190.228V25.0001C514.232 20.5818 510.65 17.0001 506.232 17.0001H341.004C318.253 16.9773 295.722 21.4497 274.705 30.1605C253.688 38.8713 234.599 51.6487 218.534 67.7589L217.319 68.9743C196.144 90.4707 180.995 117.157 173.39 146.357C187.157 142.792 201.305 140.907 215.525 140.743C253.536 140.295 290.63 152.422 321.036 175.238C348.363 195.617 369.045 223.63 380.476 255.746C392.126 288.571 393.658 324.137 384.875 357.842C414.08 350.25 440.769 335.098 462.257 313.913L463.473 312.755C479.59 296.684 492.371 277.586 501.082 256.558C509.793 235.531 514.262 212.989 514.232 190.228Z" fill="#18E299"/>
</g>
</g>
<defs>
<clipPath id="clip0_1653_68">
<rect width="2247" height="503" fill="white"/>
</clipPath>
<clipPath id="clip1_1653_68">
<rect width="470" height="470" fill="white" transform="translate(44 17)"/>
</clipPath>
</defs>
</svg>
